<svg width="32" height="32" viewBox="0 0 32 32" fill="none" xmlns="http://www.w3.org/2000/svg">
<path d="M10.5566 14.8373C11.3253 14.8373 12.1484 14.3788 12.82 14.0642C15.2038 12.9477 17.5836 11.5833 19.6099 9.92309C21.1893 8.62903 22.2323 7.17155 22.5734 5.17457C22.5907 5.07317 22.5882 3.44059 22.2764 4.2014C21.7216 5.55473 21.53 7.11726 21.0386 8.5151C20.1949 10.9149 19.2041 13.3413 18.1953 15.6793C16.7469 19.0362 15.4995 22.5544 14.7013 26.115C14.5428 26.8221 14.5458 27.3017 13.987 27.8198C13.2379 28.5142 12.2627 28.5256 11.2922 28.6273C9.91923 28.7712 8.49932 28.8384 7.11924 28.8758C6.89799 28.8818 7.02485 28.8807 7.17582 28.9034C7.83129 29.0018 8.47945 29 9.14207 29C12.627 29 16.099 28.8004 19.5816 28.7584C21.2742 28.738 26.3508 28.8301 24.6599 28.7515C24.269 28.7334 23.939 28.5031 23.5424 28.5031" stroke="#261134" stroke-opacity="0.6" stroke-width="3" stroke-linecap="round"/>
</svg>
