<svg width="322" height="352" viewBox="0 0 322 352" fill="none" xmlns="http://www.w3.org/2000/svg">
<path d="M295.333 52C295.333 57.891 300.109 62.6667 306 62.6667C311.891 62.6667 316.667 57.891 316.667 52C316.667 46.109 311.891 41.3333 306 41.3333C300.109 41.3333 295.333 46.109 295.333 52ZM2.68236 159.832L4.66508 160.094L2.68236 159.832ZM105.86 351.414C106.641 352.195 107.907 352.195 108.688 351.414L121.416 338.686C122.197 337.905 122.197 336.639 121.416 335.858C120.635 335.077 119.369 335.077 118.588 335.858L107.274 347.172L95.9604 335.858C95.1794 335.077 93.9131 335.077 93.132 335.858C92.351 336.639 92.351 337.905 93.132 338.686L105.86 351.414ZM305.983 50.0001C256.703 50.4183 183.823 53.6573 121.643 68.7073C90.5589 76.2308 62.0083 86.7379 40.3964 101.421C18.7562 116.123 3.93435 135.118 0.699631 159.569L4.66508 160.094C7.70582 137.108 21.625 119.01 42.6443 104.729C63.692 90.4299 91.7193 80.0655 122.584 72.595C184.302 57.6569 256.806 54.4176 306.017 53.9999L305.983 50.0001ZM0.699631 159.569C-4.72763 200.595 22.3525 225.327 49.6543 250.997C77.1703 276.868 105.274 303.94 105.274 350L109.274 350C109.274 302.02 79.8101 273.86 52.3943 248.083C24.7644 222.104 -0.451381 198.771 4.66508 160.094L0.699631 159.569Z" fill="#261134" fill-opacity="0.6"/>
<path d="M296.791 8.66962C295.722 8.53175 295.898 6.99226 296.205 6.16723C297.115 3.72736 299.973 4.01 302.058 4.01C305.205 4.01 304.316 6.80562 304.316 9.44622C304.316 13.2932 303.023 30.9761 295.704 28.8181C293.584 28.193 293.875 25.5708 294.868 24.5468C296.478 22.8852 300.141 22.9844 302.435 23.8565C306.24 25.3034 317.109 33.7747 317.109 24.2017" stroke="#261134" stroke-opacity="0.6" stroke-width="3" stroke-linecap="round"/>
</svg>
