<svg width="322" height="352" viewBox="0 0 322 352" fill="none" xmlns="http://www.w3.org/2000/svg">
<path d="M4.83333 53.4749C4.83333 59.3659 9.60896 64.1415 15.5 64.1415C21.391 64.1415 26.1667 59.3659 26.1667 53.4749C26.1667 47.5838 21.391 42.8082 15.5 42.8082C9.60896 42.8082 4.83333 47.5838 4.83333 53.4749ZM319.41 148.539L321.388 148.834L319.41 148.539ZM76.3644 351.735C77.3247 352.28 78.5456 351.944 79.0914 350.984L87.9845 335.334C88.5302 334.374 88.1941 333.153 87.2338 332.607C86.2734 332.062 85.0525 332.398 84.5068 333.358L76.6018 347.269L62.691 339.364C61.7306 338.818 60.5097 339.154 59.964 340.115C59.4183 341.075 59.7544 342.296 60.7147 342.842L76.3644 351.735ZM15.6482 55.4694C60.8186 52.1131 140.022 53.0277 206.16 66.1647C239.252 72.7378 268.872 82.3333 289.323 95.8429C309.711 109.311 320.69 126.43 317.432 148.243L321.388 148.834C324.957 124.942 312.686 106.483 291.527 92.5054C270.431 78.5687 240.207 68.8493 206.939 62.2414C140.359 49.0165 60.7795 48.105 15.3518 51.4804L15.6482 55.4694ZM317.432 148.243C314.011 171.143 295.742 187.57 269.865 201.245C244.013 214.907 211.235 225.487 179.629 237.045C148.179 248.546 117.864 261.026 97.561 278.49C87.3738 287.253 79.626 297.335 75.5429 309.256C71.4545 321.193 71.0969 334.808 75.4242 350.527L79.2808 349.465C75.1332 334.399 75.5376 321.616 79.3271 310.552C83.1219 299.473 90.3679 289.953 100.169 281.522C119.844 264.599 149.485 252.328 181.003 240.802C212.365 229.333 245.565 218.61 271.734 204.781C297.878 190.965 317.672 173.713 321.388 148.834L317.432 148.243Z" fill="#261134" fill-opacity="0.6"/>
<path d="M10.5566 14.8373C11.3253 14.8373 12.1484 14.3788 12.82 14.0642C15.2038 12.9477 17.5836 11.5833 19.6099 9.92309C21.1893 8.62903 22.2323 7.17155 22.5734 5.17457C22.5907 5.07317 22.5882 3.44059 22.2764 4.2014C21.7216 5.55473 21.53 7.11726 21.0386 8.5151C20.1949 10.9149 19.2041 13.3413 18.1953 15.6793C16.7469 19.0362 15.4995 22.5544 14.7013 26.115C14.5428 26.8221 14.5458 27.3017 13.987 27.8198C13.2379 28.5142 12.2627 28.5256 11.2922 28.6273C9.91923 28.7712 8.49932 28.8384 7.11924 28.8758C6.89799 28.8818 7.02485 28.8807 7.17582 28.9034C7.83129 29.0018 8.47945 29 9.14207 29C12.627 29 16.099 28.8004 19.5816 28.7584C21.2742 28.738 26.3508 28.8301 24.6599 28.7515C24.269 28.7334 23.939 28.5031 23.5424 28.5031" stroke="#261134" stroke-opacity="0.6" stroke-width="3" stroke-linecap="round"/>
</svg>
