<svg width="322" height="352" viewBox="0 0 322 352" fill="none" xmlns="http://www.w3.org/2000/svg">
<path d="M5.33333 52C5.33333 57.891 10.109 62.6667 16 62.6667C21.891 62.6667 26.6667 57.891 26.6667 52C26.6667 46.109 21.891 41.3333 16 41.3333C10.109 41.3333 5.33333 46.109 5.33333 52ZM319.59 183.055L317.599 182.863L319.59 183.055ZM95.9355 351.085C96.5346 352.013 97.7725 352.279 98.7005 351.68L113.823 341.917C114.751 341.318 115.017 340.08 114.418 339.152C113.819 338.224 112.581 337.958 111.653 338.557L98.2112 347.235L89.5329 333.793C88.9338 332.865 87.6958 332.598 86.7678 333.198C85.8399 333.797 85.5733 335.035 86.1724 335.963L95.9355 351.085ZM15.8792 53.9963C68.3491 57.1716 146.751 61.6528 210.666 79.4174C242.63 88.3014 270.761 100.454 290.193 117.264C309.539 133.999 320.257 155.325 317.599 182.863L321.58 183.247C324.381 154.23 312.984 131.69 292.81 114.239C272.724 96.8632 243.931 84.5114 211.738 75.5635C147.337 57.6641 68.4864 53.1726 16.1208 50.0037L15.8792 53.9963ZM317.599 182.863C315.613 203.441 302.631 217.953 283.365 229.733C264.046 241.545 238.784 250.381 212.811 259.725C186.95 269.029 160.429 278.825 139.045 292.551C117.615 306.307 101.139 324.139 95.6606 349.579L99.5709 350.421C104.749 326.376 120.313 309.328 141.206 295.917C162.146 282.476 188.233 272.818 214.165 263.489C239.986 254.199 265.704 245.22 285.451 233.146C305.251 221.04 319.424 205.593 321.58 183.247L317.599 182.863Z" fill="#261134" fill-opacity="0.6"/>
<path d="M17.1893 5.59062C17.4982 3.05938 25.801 3.27918 22.784 8.22516C21.1843 10.8476 20.5806 12.9385 17.7262 14.218C15.5986 15.1717 14.7352 15.2218 17.698 14.5654C20.056 14.043 23.4458 14.1893 25.7226 15.0865C27.4484 15.7666 26.978 19.2888 26.8246 20.703C25.9526 28.744 11.4067 30.8013 6 27.4775" stroke="#261134" stroke-opacity="0.6" stroke-width="3" stroke-linecap="round"/>
</svg>
