<svg width="512" height="512" viewBox="0 0 512 512" fill="none" xmlns="http://www.w3.org/2000/svg">
<path d="M335.6 401.312C337.506 403.669 340.742 404.001 343.582 404.32C345.64 404.55 347.456 403.74 349.484 403.821C346.8 406.928 344.165 410.016 341.068 412.73C327.92 424.255 309.987 430.218 292.7 431.428C276.73 432.546 260.143 429.052 246.382 420.748C241.681 417.912 237.126 414.282 232.989 410.676C231.518 409.394 230.174 407.88 229.021 406.306C232.784 405.89 236.567 405.989 240.346 405.988L255.748 405.984L301.961 405.8L315.006 405.785C318.414 405.78 321.81 405.849 325.188 405.331C329.161 404.722 332.248 403.537 335.6 401.312Z" fill="#FFD179"/>
<path d="M65.7314 171.659C66.4134 169.406 67.7512 167.381 68.9619 165.379L74.0226 156.988C78.5786 149.454 83.3439 142.043 88.7113 135.054C92.2693 130.422 96.1579 126.037 100.071 121.704C113.937 106.344 129.163 93.2029 146.531 81.9629C165.126 69.9275 186.551 60.413 208 54.8302C220.919 51.4679 234.187 49.4283 247.461 48.1429C253.296 47.5779 259.102 47.3098 264.963 47.4221C266.732 47.456 268.716 47.3282 270.445 47.7107L272.207 48.0593C276.986 47.9387 281.933 48.3853 286.581 49.5353C290.591 50.5275 294.475 51.9553 298.401 53.2067C306.937 54.7646 315.363 57.5065 323.525 60.4246C342.485 67.2042 360.858 77.2415 376.245 90.3055C387.676 100.01 397.782 111.752 406.299 124.074C418.313 141.457 427.096 161.878 431.721 182.5C433.9 192.214 435.048 202.085 435.782 212C436.711 224.55 436.541 237.628 434.243 250.034C431.062 267.201 423.971 286.752 408.994 296.96L405.048 299.484C405.067 297.988 404.992 296.56 404.695 295.09C403.307 288.21 401.022 281.469 399.011 274.75L394.451 260.121C393.625 257.765 392.681 254.523 390.875 252.73C389.594 251.459 387.672 250.888 385.979 250.417C386.855 249.165 388.306 248.06 389.449 247.037C391.667 246.096 392.997 244.244 393.894 242.075L394.017 241.756C396.571 236.091 397.184 228.636 396.253 222.537L396.212 221.632C395.977 217.7 394.615 214.283 391.598 211.674C385.307 206.233 377.3 210.99 370.215 211.462C360.814 212.088 350.628 209.646 343.501 203.302L343.487 197.013L327.352 197.017C325.857 197.018 323.203 196.66 321.875 197.104C321.652 197.179 321.485 197.368 321.29 197.5C321.241 198.216 321.289 198.678 320.875 199.292L319.331 199.294C317.736 199.423 308.921 199.256 308.219 199.768C307.926 200.4 307.166 201.577 307.083 202.216C306.954 203.217 308.065 204.982 307.823 205.936C307.749 206.226 305.669 206.962 305.557 207.283C305.508 207.426 305.701 208.106 305.739 208.304C306.081 210.082 306.636 211.811 307.226 213.52C308.262 213.393 309.378 213.152 310.415 213.254C310.407 214.354 310.225 215.722 310.789 216.706L310.587 216.886C308.813 218.19 306.132 217.987 304.045 218.001C301.823 218.016 299.552 218.095 297.338 217.932L288.973 217.004L272.254 215.303L269.203 226.856L268.095 231.335L267.545 233.789L255.5 234.088C254.653 234.11 253.132 233.871 252.375 234.079C252.293 234.102 251.949 234.401 251.859 234.492C250.531 235.839 251.001 241.431 250.815 243.434C250.657 245.13 250.381 246.886 249.949 248.532C244.845 246.846 239.642 244.8 234.25 244.303C228.292 243.753 221.899 245.047 216.017 245.944L194.718 249.434L170.294 255.535L174.527 268.25C176.964 274.164 180.509 280.302 185.851 284.032C191.21 287.773 198.148 289.342 204.409 290.892C207.283 291.604 210.312 291.84 213.061 292.985L167.697 291.332L167.207 171.352C166.527 171.101 165.675 171.206 164.948 171.21L159.855 171.235L135.263 171.447L65.7314 171.659ZM173.567 227.042L170.817 245.372C170.373 248.69 169.764 252.028 170.274 255.37L170.294 255.535L194.718 249.434L216.017 245.944C221.899 245.047 228.292 243.753 234.25 244.303C239.642 244.8 244.845 246.846 249.949 248.532C250.381 246.886 250.657 245.13 250.815 243.434C251.001 241.431 250.531 235.839 251.859 234.492C251.949 234.401 252.293 234.102 252.375 234.079C253.132 233.871 254.653 234.11 255.5 234.088L267.545 233.789L268.095 231.335L269.203 226.856L272.254 215.303L272.577 214.054L274.455 202.734L268.523 202.434L268.469 199.412L268.223 199.488L268.219 200.762L268.201 201.476L267.877 201.75C267.881 202.334 268.024 203.403 267.891 203.942C267.787 204.368 267.2 205.096 266.957 205.5L266.79 205.574C266.761 204.739 266.803 204.456 267.25 203.75L267.125 203.25L266.471 203.716C266.077 203.584 265.855 203.487 265.501 203.251L262.665 203.984C261.955 204.086 261.001 203.298 260.38 203.024C259.877 202.802 259.276 202.852 258.773 203.046L259.058 203.3C258.79 203.814 258.787 204.155 258.717 204.728L258.447 204.828L258.377 204C257.966 203.928 257.625 201.92 256.875 201.322C256.449 201.236 256.052 201.162 255.649 200.99L255.408 200.875L255.129 200.93L254.691 200.512L254.218 200.57C253.034 198.744 253.761 193.792 253.639 191.516C253.282 184.873 252.179 178.251 250.808 171.75C249.731 166.641 248.678 161.359 246.797 156.477C244.189 149.71 240.153 144.139 235.251 138.88C232.943 136.069 229.011 132.371 225.183 132.037C221.473 131.714 218.175 133.294 215.462 135.712C210.517 140.12 206.54 145.484 202.915 150.996C191.985 167.617 185.071 186.392 179.545 205.404L175.117 221.261C174.604 223.151 174.381 225.27 173.567 227.042ZM233.703 119.796C232.007 120.983 230.212 122.393 228.957 124.056L228.779 124.096C228.36 124.93 227.977 125.652 227.854 126.584C227.775 127.188 227.593 127.785 227.44 128.375L227.75 128.648C228.361 128.194 228.366 128.184 229.125 128.208L229.297 128.348C230.515 129.276 232.412 129.228 233.875 129.726C235.393 130.243 236.849 130.963 238.207 131.816C247.716 137.793 254.683 148.314 258.439 158.73C259.295 161.102 260.197 163.489 260.577 165.994C260.98 168.65 260.694 171.376 260.483 174.04C259.961 180.624 258.686 187.031 256.965 193.404C256.471 195.236 256.066 197.204 255.447 198.988C255.055 199.508 254.891 199.905 254.691 200.512L255.129 200.93L255.408 200.875L255.649 200.99C256.052 201.162 256.449 201.236 256.875 201.322C257.625 201.92 257.966 203.928 258.377 204L258.447 204.828L258.717 204.728C258.787 204.155 258.79 203.814 259.058 203.3L258.773 203.046C259.276 202.852 259.877 202.802 260.38 203.024C261.001 203.298 261.955 204.086 262.665 203.984L265.501 203.251C265.855 203.487 266.077 203.584 266.471 203.716L267.125 203.25L267.25 203.75C266.803 204.456 266.761 204.739 266.79 205.574L266.957 205.5C267.2 205.096 267.787 204.368 267.891 203.942C268.024 203.403 267.881 202.334 267.877 201.75L268.201 201.476L268.219 200.762L268.223 199.488L268.469 199.412C269.317 188.108 269.659 176.834 267.943 165.58C266.993 159.356 265.384 153.376 263.82 147.29L266.999 143.499C263.095 138.561 258.563 134.423 253.784 130.351C249.811 126.967 245.705 123.404 241.179 120.76C239.58 119.827 237.819 119.08 236.14 118.298C235.251 118.745 234.475 119.165 233.703 119.796Z" fill="#FFD179"/>
<path d="M272.577 214.054C275.588 212.04 275.269 208.52 277.29 205.877C279.007 203.63 282.744 202.878 285.25 201.76C288.584 200.271 292.245 197.974 295.915 197.589C299.143 197.25 309.805 196.954 311.909 198.784C312.981 199.718 317.702 199.165 319.331 199.294C317.736 199.423 308.921 199.256 308.219 199.768C307.926 200.4 307.166 201.577 307.083 202.216C306.954 203.217 308.065 204.982 307.823 205.936C307.749 206.226 305.669 206.962 305.557 207.283C305.508 207.426 305.701 208.106 305.739 208.304C306.081 210.082 306.636 211.811 307.226 213.52C308.262 213.393 309.378 213.152 310.415 213.254C310.407 214.354 310.225 215.722 310.789 216.706L310.587 216.886C308.813 218.19 306.132 217.987 304.045 218.001C301.823 218.016 299.552 218.095 297.338 217.932L288.973 217.004L272.254 215.303L272.577 214.054Z" fill="#FFAD72"/>
<path d="M233.704 119.796C234.475 119.165 235.252 118.745 236.14 118.298C237.819 119.08 239.58 119.827 241.179 120.76C245.706 123.403 249.811 126.967 253.784 130.351C258.563 134.423 263.096 138.561 267 143.499L263.82 147.29C265.384 153.376 266.994 159.355 267.943 165.58C269.659 176.833 269.318 188.108 268.47 199.411L268.223 199.487L268.219 200.762L268.201 201.476L267.878 201.75C267.882 202.333 268.024 203.403 267.892 203.942C267.788 204.367 267.2 205.095 266.958 205.5L266.79 205.573C266.761 204.739 266.803 204.455 267.25 203.75L267.126 203.25L266.472 203.715C266.077 203.583 265.855 203.487 265.501 203.251L262.665 203.983C261.956 204.086 261.001 203.297 260.38 203.023C259.877 202.802 259.276 202.852 258.774 203.046L259.058 203.3C258.79 203.814 258.787 204.155 258.717 204.728L258.447 204.827L258.378 204C257.966 203.927 257.626 201.92 256.875 201.321C256.449 201.235 256.052 201.161 255.65 200.989L255.408 200.875L255.13 200.93L254.691 200.512C254.891 199.905 255.056 199.508 255.447 198.987C256.066 197.204 256.471 195.235 256.966 193.403C258.686 187.031 259.962 180.624 260.484 174.039C260.694 171.376 260.98 168.65 260.578 165.993C260.198 163.489 259.295 161.102 258.44 158.73C254.684 148.313 247.716 137.793 238.208 131.816C236.85 130.963 235.394 130.243 233.876 129.725C232.412 129.227 230.516 129.275 229.297 128.348L229.126 128.208C228.366 128.184 228.362 128.194 227.75 128.647L227.44 128.375C227.593 127.785 227.775 127.188 227.854 126.583C227.977 125.651 228.36 124.93 228.779 124.096L228.958 124.055C230.212 122.393 232.007 120.983 233.704 119.796ZM255.447 198.987C255.056 199.508 254.891 199.905 254.691 200.512L255.13 200.93L255.408 200.875L255.65 200.989C256.052 201.161 256.449 201.235 256.875 201.321C257.626 201.92 257.966 203.927 258.378 204L258.447 204.827L258.717 204.728C258.787 204.155 258.79 203.814 259.058 203.3L258.774 203.046C259.276 202.852 259.877 202.802 260.38 203.023C261.001 203.297 261.956 204.086 262.665 203.983L265.501 203.251C265.855 203.487 266.077 203.583 266.472 203.715L267.126 203.25L267.25 203.75C266.803 204.455 266.761 204.739 266.79 205.573L266.958 205.5C267.2 205.095 267.788 204.367 267.892 203.942C268.024 203.403 267.882 202.333 267.878 201.75L268.201 201.476L268.219 200.762C267.785 200.855 267.456 200.947 267.01 200.856C266.44 200.74 266.05 199.711 265.965 199.18C265.65 197.203 266.066 194.886 266 192.858C265.976 192.102 266.022 191.217 265.618 190.56C265.331 191.099 265.37 191.181 264.813 191.501L264.688 194.126C264.035 194.157 263.407 194.155 262.784 194.373L262.754 194.123C263.342 193.589 263.732 193.227 263.748 192.373C263.755 192.033 263.702 191.863 263.635 191.549L263.375 191.377L263 191.627L262.25 191.625C262.588 191.256 262.818 191.183 263.296 191.053L263.25 190.627L262.303 190.558L262.375 190.127L261.802 190.059L261.75 189.669C261.206 190.242 260.954 191.038 260.602 191.736L258.242 196.467C257.872 197.213 257.438 198.342 256.6 198.597L255.447 198.987ZM265.618 190.56C266.022 191.217 265.976 192.102 266 192.858C266.066 194.886 265.65 197.203 265.965 199.18C266.05 199.711 266.44 200.74 267.01 200.856C267.456 200.947 267.785 200.855 268.219 200.762L268.223 199.487L267.87 199.379C267.384 198.352 267.754 197.745 267.912 196.704C268.102 195.448 268.125 193.499 267.656 192.313C267.122 190.967 266.765 188.829 265.563 188.001C265.457 188.847 265.563 189.709 265.618 190.56ZM233.704 119.796C232.007 120.983 230.212 122.393 228.958 124.055L229.152 124.557L230.37 124.763C231.561 124.133 233.028 122.324 233.648 121.125C233.966 120.509 233.933 120.397 233.704 119.796Z" fill="url(#paint0_linear_14_81)"/>
<path d="M265.618 190.56C265.563 189.709 265.457 188.847 265.563 188.001C266.765 188.829 267.122 190.967 267.656 192.313C268.125 193.499 268.102 195.448 267.912 196.704C267.754 197.745 267.384 198.352 267.87 199.379L268.223 199.487L268.219 200.762C267.785 200.855 267.456 200.947 267.01 200.856C266.44 200.74 266.05 199.711 265.965 199.18C265.65 197.203 266.066 194.886 266 192.858C265.976 192.102 266.022 191.217 265.618 190.56Z" fill="white" fill-opacity="0.105882"/>
<path d="M255.446 198.988L256.6 198.597C257.438 198.342 257.872 197.214 258.242 196.467L260.601 191.736C260.954 191.038 261.206 190.242 261.75 189.669L261.802 190.059L262.374 190.128L262.302 190.558L263.25 190.628L263.296 191.053C262.818 191.183 262.587 191.256 262.25 191.626L263 191.628L263.374 191.378L263.634 191.55C263.702 191.863 263.754 192.033 263.748 192.374C263.732 193.228 263.342 193.589 262.753 194.124L262.783 194.373C263.406 194.156 264.034 194.157 264.687 194.126L264.812 191.502C265.369 191.182 265.33 191.099 265.617 190.56C266.022 191.218 265.976 192.102 266 192.858C266.065 194.886 265.649 197.203 265.964 199.18C266.05 199.712 266.44 200.74 267.01 200.856C267.455 200.947 267.784 200.856 268.218 200.762L268.2 201.476L267.877 201.75C267.881 202.334 268.024 203.403 267.891 203.942C267.787 204.368 267.2 205.096 266.957 205.5L266.79 205.574C266.76 204.739 266.802 204.456 267.25 203.75L267.125 203.25L266.471 203.716C266.076 203.584 265.854 203.487 265.5 203.251L262.664 203.984C261.955 204.086 261 203.298 260.38 203.024C259.876 202.802 259.276 202.852 258.773 203.046L259.058 203.3C258.79 203.814 258.786 204.155 258.716 204.728L258.446 204.828L258.377 204C257.966 203.928 257.625 201.92 256.874 201.322C256.448 201.236 256.052 201.162 255.649 200.99L255.408 200.875L255.129 200.93L254.69 200.512C254.89 199.905 255.055 199.508 255.446 198.988Z" fill="url(#paint1_linear_14_81)"/>
<path d="M173.566 227.042C176.069 203.835 178.907 179.551 190.031 158.628L199.285 142.443C201.304 139.067 203.464 135.821 205.214 132.287C207.004 128.669 208.347 124.803 209.685 121L227.12 121.025L228.778 124.096C228.36 124.93 227.976 125.651 227.854 126.583C227.774 127.188 227.592 127.785 227.44 128.375L227.75 128.647C228.361 128.194 228.366 128.184 229.125 128.208L229.296 128.348C230.515 129.275 232.412 129.227 233.875 129.725C235.393 130.243 236.849 130.963 238.207 131.816C247.716 137.793 254.683 148.313 258.439 158.73C259.294 161.102 260.197 163.489 260.577 165.993C260.98 168.65 260.694 171.376 260.483 174.039C259.961 180.624 258.686 187.031 256.965 193.403C256.47 195.235 256.066 197.204 255.446 198.987C255.055 199.508 254.89 199.905 254.69 200.512L254.218 200.57C253.034 198.743 253.76 193.792 253.638 191.515C253.282 184.873 252.178 178.251 250.808 171.75C249.73 166.641 248.678 161.359 246.796 156.477C244.188 149.71 240.153 144.139 235.25 138.879C232.942 136.069 229.01 132.371 225.182 132.037C221.472 131.713 218.175 133.293 215.462 135.712C210.517 140.119 206.54 145.483 202.915 150.996C191.985 167.617 185.07 186.392 179.545 205.404L175.116 221.261C174.604 223.151 174.381 225.269 173.566 227.042Z" fill="#3F3E57"/>
<path d="M272.207 48.0591C276.986 47.9385 281.933 48.385 286.58 49.535C290.59 50.5272 294.475 51.9551 298.401 53.2064L298.754 53.5212C301.102 55.5602 304.199 56.8629 306.644 58.9091C311.824 63.2431 315.934 69.332 318.542 75.5313C320.318 79.75 321.557 84.2593 322.959 88.6153L309.5 91.0113L304.134 91.768C303.962 91.7933 302.952 91.8727 302.846 91.9587C302.634 92.1313 302.303 92.7767 302.14 93.0267C299.911 96.4427 297.501 99.9953 296.103 103.835L294.225 102.001C294.893 100.669 295.926 99.0467 296.212 97.6033C294.8 96.404 292.382 94.0853 290.442 94.248C288.529 94.4093 286.62 95.9093 285.008 96.9067C282.478 98.4727 279.889 99.9833 277.518 101.785L298.657 111.56C298.036 114.241 297.361 116.724 295.969 119.119C293.311 124.21 287.893 128.607 282.399 130.314L280.984 130.704L279.291 131.121C278.61 131.279 277.428 131.54 276.734 131.486C275.626 131.551 274.745 131.508 273.685 131.151C268.518 129.409 264.881 125.667 262.453 120.877C259.912 115.863 259.075 111.059 260.712 105.617C261.137 104.203 261.858 102.905 262.322 101.5C261.734 100.905 261.224 100.849 260.374 100.82C258.836 100.767 257.118 101.27 255.6 101.563C255.298 101.621 254.364 101.711 254.142 101.847C254.072 101.889 254.097 102.005 254.074 102.084C252.952 106.03 252.263 109.355 249.126 112.214C246.674 112.661 244.02 112.603 241.564 112.221L238.763 106.102C238.2 104.757 237.884 103.22 237.498 101.815C236.761 99.1213 236.047 96.4593 235.588 93.7013C233.861 83.3327 235.797 72.604 242.034 64.0079C247.191 56.9014 255.37 51.3011 263.958 49.2776C266.711 48.6288 269.439 48.5104 272.207 48.0591Z" fill="#3F3E57"/>
<path d="M273.174 99.8745L273.461 99.8845C274.429 100.11 275.568 101.331 276.11 102.125C276.02 102.585 275.989 102.945 276.056 103.407L276.125 103.846C275.5 103.639 274.974 103.425 274.508 102.947C273.581 101.997 273.185 101.192 273.174 99.8745Z" fill="#70668B"/>
<path d="M276.394 103.769C278.942 104.169 281.096 105.45 283.325 106.662L290.515 110.427C292.466 111.388 294.541 112.099 296.451 113.125C296.563 114.034 296.294 114.761 296.03 115.625L295.626 116.329C293.964 115.923 292.388 115.071 290.848 114.34C285.51 111.803 280.248 108.278 276.394 103.769Z" fill="#FFAD72"/>
<path d="M276.735 131.486C276.269 130.502 274.063 129.629 273.126 129.011C271.724 128.085 270.316 126.961 269.302 125.61C266.621 122.038 265.73 116.892 266.414 112.543C266.889 109.523 267.981 106.799 270.497 104.941L270.76 104.923C272.023 104.837 276.375 108.617 277.716 109.374C283.702 112.754 290.1 115.587 295.97 119.119C293.312 124.21 287.894 128.607 282.4 130.314L280.985 130.704L279.292 131.121C278.611 131.279 277.429 131.54 276.735 131.486Z" fill="#FFAD72"/>
<path d="M173.566 227.042C174.381 225.269 174.604 223.151 175.116 221.261L179.545 205.404C185.07 186.392 191.985 167.617 202.915 150.996C206.54 145.483 210.517 140.119 215.462 135.712C218.175 133.293 221.472 131.713 225.182 132.037C229.01 132.371 232.942 136.069 235.25 138.879C240.153 144.139 244.188 149.71 246.797 156.477C248.678 161.359 249.73 166.641 250.808 171.75C252.179 178.251 253.282 184.873 253.639 191.515C253.761 193.792 253.034 198.743 254.218 200.57L254.691 200.512L255.129 200.93L255.408 200.875L255.649 200.989C256.052 201.161 256.449 201.235 256.875 201.321C257.625 201.92 257.966 203.927 258.377 204L258.447 204.827L258.717 204.728C258.787 204.155 258.79 203.814 259.058 203.3L258.773 203.046C259.276 202.852 259.877 202.802 260.38 203.023C261.001 203.297 261.955 204.086 262.665 203.983L265.501 203.251C265.855 203.487 266.077 203.583 266.471 203.715L267.125 203.25L267.25 203.75C266.803 204.455 266.761 204.739 266.79 205.573L266.957 205.5C267.2 205.095 267.787 204.367 267.891 203.942C268.024 203.403 267.881 202.333 267.877 201.75L268.201 201.476L268.219 200.762L268.223 199.487L268.469 199.411L268.523 202.434L274.455 202.734L272.577 214.054L272.254 215.303L269.203 226.855L268.095 231.335L267.545 233.789L255.5 234.087C254.653 234.109 253.132 233.871 252.375 234.079C252.293 234.101 251.948 234.401 251.858 234.491C250.531 235.839 251 241.431 250.814 243.433C250.656 245.13 250.381 246.885 249.949 248.531C244.845 246.845 239.642 244.8 234.25 244.303C228.292 243.753 221.899 245.047 216.017 245.943L194.718 249.433L170.294 255.535L170.274 255.37C169.764 252.027 170.372 248.69 170.816 245.371L173.566 227.042ZM262.765 210.141L263.001 209.751L263.877 209.5L264.126 209.187C265.057 208.209 265.135 208.151 265.377 206.765C264.791 205.262 264.07 204.743 262.665 203.983C261.955 204.086 261.001 203.297 260.38 203.023C259.877 202.802 259.276 202.852 258.773 203.046L259.058 203.3C258.79 203.814 258.787 204.155 258.717 204.728L258.447 204.827L258.377 204C257.966 203.927 257.625 201.92 256.875 201.321C256.449 201.235 256.052 201.161 255.649 200.989L255.408 200.875L255.129 200.93L254.691 200.512L254.218 200.57C253.034 198.743 253.761 193.792 253.639 191.515C253.282 184.873 252.179 178.251 250.808 171.75C249.73 166.641 248.678 161.359 246.797 156.477C244.188 149.71 240.153 144.139 235.25 138.879C229.045 139.04 224.272 142.116 220.096 146.502C212.252 154.742 209.256 167.634 209.567 178.731C209.742 184.966 210.649 191.044 211.88 197.151C213.836 206.855 216.494 216.681 223.996 223.668C227.216 226.667 231.8 229.143 236.328 228.995C239.016 228.907 242.191 227.817 244.59 226.598C250.797 223.445 256.197 218.274 261.358 213.675L261.108 213.317C260.538 212.489 260.051 211.927 260.127 210.875C260.505 210.807 260.846 210.777 261.226 210.745C261.794 210.698 262.27 210.401 262.765 210.141ZM268.223 199.487L268.219 200.762L268.201 201.476L267.877 201.75C267.881 202.333 268.024 203.403 267.891 203.942C267.787 204.367 267.2 205.095 266.957 205.5L266.79 205.573C266.761 204.739 266.803 204.455 267.25 203.75L267.125 203.25L266.471 203.715C266.077 203.583 265.855 203.487 265.501 203.251L262.665 203.983C264.07 204.743 264.791 205.262 265.377 206.765C265.135 208.151 265.057 208.209 264.126 209.187L263.877 209.5L263.001 209.751L262.765 210.141L258.041 224.501L256.84 228.083L256.315 229.767L256.364 230.887L257.711 231.2C258.819 231.496 262.515 231.019 262.964 231.726C263.434 232.465 263.767 232.931 264.502 233.41C265.283 233.417 265.864 233.43 266.486 232.875C266.741 232.647 266.893 232.269 267.087 232C267.345 231.643 267.703 231.498 268.095 231.335L269.203 226.855L272.254 215.303L272.577 214.054L274.455 202.734L268.523 202.434L268.469 199.411L268.223 199.487Z" fill="#CDCCCC"/>
<path d="M268.223 199.488L268.469 199.412L268.523 202.434L274.455 202.734L272.577 214.054L272.254 215.303L269.203 226.856L268.095 231.335C267.703 231.498 267.345 231.644 267.087 232C266.893 232.269 266.741 232.648 266.486 232.875C265.864 233.43 265.283 233.418 264.502 233.41C263.767 232.931 263.434 232.466 262.964 231.726C262.515 231.02 258.819 231.496 257.711 231.2L256.364 230.887L256.315 229.768L256.84 228.084L258.041 224.502L262.765 210.141L263.001 209.752L263.877 209.5L264.126 209.188C265.057 208.209 265.135 208.151 265.377 206.766C264.791 205.262 264.07 204.744 262.665 203.984L265.501 203.251C265.855 203.487 266.077 203.584 266.471 203.716L267.125 203.25L267.25 203.75C266.803 204.456 266.761 204.739 266.79 205.574L266.957 205.5C267.2 205.096 267.787 204.368 267.891 203.942C268.024 203.403 267.881 202.334 267.877 201.75L268.201 201.476L268.219 200.762L268.223 199.488ZM263.5 230.16C262.551 230.489 261.993 230.681 261 230.452C260.321 229.824 259.598 229.264 258.657 229.098C257.572 228.906 257.166 229.229 256.315 229.768L256.364 230.887L257.711 231.2C258.819 231.496 262.515 231.02 262.964 231.726C263.434 232.466 263.767 232.931 264.502 233.41C265.283 233.418 265.864 233.43 266.486 232.875C266.741 232.648 266.893 232.269 267.087 232C267.345 231.644 267.703 231.498 268.095 231.335L269.203 226.856L268.911 226.994C267.697 226.56 269.517 227.253 268.27 226.626C267.513 226.244 267.207 226.446 266.5 226.748L266.035 227.338L266.207 228.336L266.644 228.642L266.877 228.375L266.937 229.188C266.507 229.379 266.487 229.457 266 229.375C265.159 229.777 265.027 229.91 264.625 230.75C264.015 230.608 263.937 230.712 263.549 230.199L263.5 230.16ZM256.84 228.084L256.315 229.768C257.166 229.229 257.572 228.906 258.657 229.098C259.598 229.264 260.321 229.824 261 230.452C261.993 230.681 262.551 230.489 263.5 230.16C263.164 229.959 262.881 229.941 262.5 229.878C262.011 230.202 261.937 230.126 261.375 230.128L261.229 229.803C262.457 229.766 263.617 229.988 264.611 229.237C264.674 228.761 264.695 228.45 264.983 228.047L265.181 227.809L265.073 227.292L264.501 227.502C263.841 227.732 263.778 228.212 263.251 228.502L262.875 228.628C262.466 228.78 262.074 228.995 261.625 229.011C260.697 229.044 259.37 228.156 258.724 227.55C258.585 227.13 258.679 227.34 258.427 226.925C258.027 227.334 257.673 227.743 257.367 228.228L257.134 228.601L256.84 228.084Z" fill="url(#paint2_linear_14_81)"/>
<path d="M256.84 228.083L257.134 228.601L257.367 228.227C257.673 227.743 258.027 227.334 258.427 226.925C258.679 227.34 258.585 227.129 258.724 227.549C259.37 228.155 260.697 229.043 261.625 229.011C262.074 228.995 262.466 228.779 262.875 228.627L263.251 228.501C263.778 228.211 263.841 227.731 264.501 227.501L265.073 227.292L265.181 227.809L264.983 228.047C264.695 228.449 264.674 228.761 264.611 229.237C263.617 229.988 262.457 229.766 261.229 229.803L261.375 230.127C261.937 230.125 262.011 230.202 262.5 229.877C262.881 229.941 263.164 229.959 263.5 230.159C262.551 230.489 261.993 230.681 261 230.452C260.321 229.823 259.598 229.263 258.657 229.097C257.572 228.906 257.166 229.229 256.315 229.767L256.84 228.083Z" fill="white" fill-opacity="0.705882"/>
<path d="M263.5 230.159L263.549 230.199C263.937 230.712 264.015 230.608 264.625 230.75C265.027 229.909 265.159 229.777 266 229.375C266.487 229.457 266.507 229.379 266.937 229.187L266.877 228.375L266.644 228.642L266.207 228.335L266.035 227.338L266.5 226.747C267.207 226.446 267.513 226.244 268.27 226.625C269.517 227.253 267.697 226.56 268.911 226.994L269.203 226.855L268.095 231.335C267.703 231.498 267.345 231.643 267.087 232C266.893 232.269 266.741 232.647 266.486 232.875C265.864 233.43 265.283 233.417 264.502 233.41C263.767 232.931 263.434 232.465 262.964 231.726C262.515 231.019 258.819 231.496 257.711 231.2L256.364 230.887L256.315 229.767C257.166 229.229 257.572 228.906 258.657 229.097C259.598 229.263 260.321 229.823 261 230.452C261.993 230.681 262.551 230.489 263.5 230.159Z" fill="white" fill-opacity="0.772549"/>
<path d="M262.765 210.141C262.27 210.401 261.794 210.698 261.226 210.745C260.847 210.777 260.506 210.807 260.128 210.875C260.051 211.927 260.538 212.489 261.109 213.317L261.358 213.675C256.198 218.274 250.798 223.445 244.59 226.598C242.192 227.817 239.016 228.907 236.328 228.995C231.801 229.143 227.216 226.667 223.996 223.668C216.494 216.681 213.836 206.855 211.88 197.151C210.65 191.044 209.742 184.966 209.568 178.731C209.257 167.634 212.252 154.742 220.097 146.502C224.273 142.116 229.046 139.04 235.251 138.879C240.154 144.139 244.189 149.71 246.797 156.477C248.678 161.359 249.731 166.641 250.808 171.75C252.179 178.251 253.282 184.873 253.639 191.515C253.761 193.792 253.034 198.743 254.218 200.57L254.691 200.512L255.13 200.93L255.408 200.875L255.65 200.989C256.052 201.161 256.449 201.235 256.875 201.321C257.626 201.92 257.966 203.927 258.378 204L258.447 204.827L258.717 204.728C258.787 204.155 258.79 203.814 259.058 203.3L258.774 203.046C259.276 202.852 259.877 202.802 260.38 203.023C261.001 203.297 261.956 204.086 262.665 203.983C264.07 204.743 264.792 205.262 265.377 206.765C265.136 208.151 265.057 208.209 264.126 209.187L263.878 209.5L263.002 209.751L262.765 210.141Z" fill="url(#paint3_linear_14_81)"/>
<path d="M244.303 201.81C246.758 201.588 249.227 201.703 251.678 201.92L241.433 205.606L236.034 208.219L236.499 207.126C237.037 205.817 237.524 204.88 238.71 204.05L238.967 203.875C240.63 202.726 242.362 202.246 244.303 201.81Z" fill="#CDCCCC"/>
<path d="M65.7319 171.659L135.263 171.447L159.855 171.235L164.948 171.209C165.675 171.206 166.528 171.101 167.207 171.351L167.697 291.331L213.062 292.985C210.312 291.839 207.284 291.603 204.409 290.891C198.148 289.341 191.21 287.773 185.851 284.031C180.509 280.301 176.964 274.163 174.528 268.25L170.294 255.535L194.718 249.433L216.018 245.943C221.9 245.047 228.292 243.753 234.25 244.303C239.642 244.8 244.846 246.845 249.949 248.531C250.381 246.885 250.657 245.13 250.815 243.433C251.001 241.431 250.532 235.839 251.859 234.491C251.949 234.401 252.294 234.101 252.375 234.079C253.132 233.871 254.653 234.109 255.5 234.087L267.546 233.789L268.095 231.335L269.204 226.855L272.254 215.303L288.973 217.003L297.338 217.932C299.552 218.095 301.824 218.016 304.045 218.001C306.132 217.987 308.814 218.19 310.588 216.885L310.789 216.706C310.225 215.721 310.408 214.354 310.416 213.254C309.378 213.152 308.262 213.393 307.226 213.519C306.636 211.811 306.081 210.081 305.74 208.303C305.702 208.105 305.508 207.426 305.558 207.283C305.669 206.961 307.75 206.225 307.823 205.935C308.065 204.982 306.954 203.217 307.084 202.215C307.166 201.577 307.926 200.399 308.22 199.767C308.922 199.256 317.736 199.423 319.331 199.293L320.875 199.291C321.289 198.678 321.242 198.216 321.29 197.5C321.486 197.368 321.652 197.179 321.875 197.104C323.203 196.66 325.858 197.018 327.353 197.017L343.487 197.013L343.502 203.301C350.629 209.646 360.815 212.088 370.215 211.461C377.301 210.989 385.307 206.233 391.599 211.673C394.616 214.283 395.977 217.699 396.213 221.632L396.253 222.537C397.185 228.636 396.571 236.091 394.017 241.756L393.895 242.075C392.997 244.243 391.667 246.095 389.45 247.037C388.307 248.06 386.855 249.165 385.979 250.417C384.275 250.799 383.073 251.4 381.875 252.675L381.678 252.872C380.902 253.696 380.981 255.131 380.917 256.201C380.802 258.128 380.751 260.039 380.373 261.938C380.059 263.514 379.482 264.951 378.689 266.35L384.64 282.522C386.276 286.886 387.651 291.387 389.966 295.455C391.015 297.3 392.793 299.826 394.737 300.785C395.648 301.234 396.691 301.373 397.626 301.761C399.497 302.539 400.502 305.032 401.193 306.804L402.808 311.323C406.349 310.877 409.778 310.4 413.355 310.409C429.873 310.454 447.121 316.711 460.092 326.905C477.516 340.599 489.529 360.9 492.107 383.036C494.363 402.409 489.787 422.695 477.444 438.111C465.247 453.343 447.973 464.294 428.329 466.36C410.712 468.213 393.059 462.697 379.388 451.52C366.213 440.749 356.387 424.364 354.174 407.375C353.975 405.845 354.103 402.406 352.784 401.519C351.598 402.197 350.559 402.983 349.484 403.821C347.456 403.739 345.64 404.55 343.582 404.319C340.742 404.001 337.507 403.669 335.6 401.311C332.248 403.537 329.161 404.721 325.189 405.331C321.81 405.849 318.414 405.78 315.007 405.785L301.961 405.8L255.748 405.983L240.346 405.987C236.567 405.989 232.784 405.89 229.022 406.305C228.332 406.155 227.704 406.057 227 406.012C226.365 406.733 226.134 408.316 225.86 409.251L223.76 415.5C216.677 433.943 203.238 450.193 184.9 458.29C169.074 465.278 150.822 466.693 134.562 460.349C118.257 453.987 103.778 440.231 96.7537 424.194C90.1284 409.067 88.4097 392.293 92.7964 376.293C93.6997 372.997 95.1577 369.799 96.3997 366.62L68.8364 366.483C70.2044 362.978 72.0437 359.582 73.8317 356.273C74.9184 354.262 75.9224 352.191 77.1244 350.245C85.1417 337.267 96.2604 326.074 109.031 317.76C111.914 315.883 114.85 314.131 117.922 312.579C119.818 311.621 121.77 310.945 123.564 309.773L17.4701 309.254L16.8994 171.716L65.7319 171.659ZM306.841 304.81C298.945 316.701 295.949 330.911 289.352 343.508C287.678 346.705 285.776 350.252 283.538 353.093C282.602 354.28 280.558 355.972 280.331 357.375C280.512 357.498 280.67 357.665 280.875 357.743C281.695 358.055 298.595 357.861 300.286 357.53L301.068 357.348L301.498 357.257C303.933 356.727 306.011 355 307.307 352.903C308.974 350.207 309.432 346.727 310.071 343.68L312.265 333.51L315.314 320.25C316.475 315.263 317.693 310.159 317.775 305.023C314.214 305.012 310.358 305.292 306.841 304.81ZM387.189 241.929C388.191 242.785 390.069 243.053 391.347 243.236L393.895 242.075L394.017 241.756C396.571 236.091 397.185 228.636 396.253 222.537L395.701 220.625L394.83 218.931C393.966 217.391 393.025 215.684 391.224 215.088C389.364 214.472 387.376 215.074 385.759 216.015C383.915 217.088 382.929 219.442 382.455 221.439C381.185 226.791 381.365 234.099 384.382 238.875C385.035 239.909 386.121 241.337 387.189 241.929ZM254.106 398.321C253.978 396 253.008 393.895 252.074 391.797C250.968 389.31 249.812 386.809 248.219 384.592L248.044 384.418C246.805 383.157 245.864 381.536 244.778 380.131L236.69 382.623L242.768 398.517L250.582 398.401C251.734 398.379 252.966 398.205 254.106 398.321ZM229.706 387.087L228.233 397.791L233.375 397.791L234.458 397.691C234.657 396.895 234.096 395.869 233.784 395.125C232.658 392.443 231.366 389.829 229.863 387.337L229.706 387.087Z" fill="#3F3E57"/>
<path d="M311.32 283.522C311.418 283.346 311.362 283.434 311.533 283.223C314.768 279.258 318.351 275.952 321.946 272.36C323.14 271.166 324.685 269.19 326.106 268.354C326.675 268.019 327.264 267.967 327.906 267.9C322.87 273.472 315.344 280.548 315.731 288.677C315.86 291.4 316.908 294.072 317.392 296.749C317.877 299.433 317.766 302.299 317.775 305.023C314.214 305.012 310.358 305.292 306.841 304.81L307.013 304.559C309.586 300.612 312.105 295.388 312.268 290.608C312.351 288.166 311.846 285.894 311.32 283.522Z" fill="#FFAD72"/>
<path d="M251.919 350.361C253.688 351.373 255.398 352.424 257.046 353.625C258.41 354.619 259.762 355.798 261.255 356.579C263.693 357.853 266.434 358.412 269.144 358.72C270.653 358.891 272.133 358.745 273.588 358.871C269.95 362.295 266.297 365.369 262 367.96C260.18 369.058 258.414 370.152 256.31 370.607C252.493 369.615 249.556 367.998 247.511 364.5C246.95 363.54 246.573 362.728 245.751 361.953C246.383 360.079 246.914 358.111 247.804 356.341C248.899 354.165 250.445 352.287 251.919 350.361Z" fill="#FFAD72"/>
<path d="M387.189 241.93C386.121 241.338 385.035 239.91 384.382 238.875C381.365 234.099 381.185 226.791 382.455 221.439C382.929 219.442 383.915 217.088 385.759 216.015C387.376 215.074 389.364 214.472 391.224 215.088C393.025 215.684 393.966 217.392 394.83 218.932L395.7 220.626L396.253 222.537C397.184 228.636 396.571 236.091 394.017 241.756L393.894 242.075L391.347 243.236C390.069 243.054 388.191 242.786 387.189 241.93ZM387.189 241.93L387.601 241.659L387.106 240.626C386.508 240.374 386.238 240.086 385.802 239.626C385.676 238.614 385.18 237.783 384.626 236.944C384.3 236.452 384.092 236.067 383.947 235.488C383.174 232.398 383.991 230.35 385.08 227.526C385.528 226.367 385.798 225.398 386.472 224.336L386.607 224.126L386.126 224L385.5 224.626L385.373 224.502C385.504 223.814 385.674 223.602 386.18 223.126L387.375 223.522C388.779 222.658 390.201 222.904 391.642 222.262L391.837 222.171C392.413 222.282 392.372 222.273 392.71 222.756C393.126 223.284 393.466 223.774 393.772 224.374C394.043 224.904 394.152 224.966 394.626 225.304C395.032 225.592 395.307 225.882 395.754 226.126C396.251 227.71 396.054 229.504 395.626 231.08C395.448 231.729 395.38 232.336 395.298 233L395.126 234.053C394.668 234.153 394.656 234.103 394.299 234.454L394.3 234.794C394.314 235.772 394.373 236.373 394.804 237.25C394.66 238.344 394.524 239.176 393.941 240.126L393.604 240.328C393.146 240.64 392.983 240.91 392.711 241.375L392.875 241.848L394.017 241.756C396.571 236.091 397.184 228.636 396.253 222.537L395.7 220.626L394.83 218.932C393.966 217.392 393.025 215.684 391.224 215.088C389.364 214.472 387.376 215.074 385.759 216.015C383.915 217.088 382.929 219.442 382.455 221.439C381.185 226.791 381.365 234.099 384.382 238.875C385.035 239.91 386.121 241.338 387.189 241.93ZM392.71 222.756L392.466 223.22L391.628 223.375C391.918 223.752 392.06 223.87 392.514 224.012L392.5 224.25L392.042 224.393L392.628 224.875L392.657 225.226C392.796 226.548 392.578 224.695 392.875 226L392.878 226.375C392.92 226.982 393.258 227.312 393.628 227.75C393.656 228.332 393.691 228.836 393.829 229.404C394.064 230.374 393.579 233.326 394.128 233.875L394.299 234.454C394.656 234.103 394.668 234.153 395.126 234.053L395.298 233C395.38 232.336 395.448 231.729 395.626 231.08C396.054 229.504 396.251 227.71 395.754 226.126C395.307 225.882 395.032 225.592 394.626 225.304C394.152 224.966 394.043 224.904 393.772 224.374C393.466 223.774 393.126 223.284 392.71 222.756Z" fill="url(#paint4_linear_14_81)"/>
<path d="M392.711 222.755C393.127 223.283 393.467 223.773 393.773 224.373C394.043 224.903 394.152 224.966 394.626 225.303C395.032 225.592 395.307 225.882 395.755 226.125C396.251 227.709 396.055 229.504 395.626 231.079C395.449 231.729 395.38 232.335 395.299 233L395.126 234.053C394.669 234.153 394.657 234.103 394.299 234.454L394.128 233.875C393.579 233.326 394.065 230.374 393.829 229.403C393.691 228.835 393.657 228.332 393.628 227.75C393.258 227.311 392.921 226.982 392.878 226.375L392.875 226C392.579 224.695 392.797 226.547 392.657 225.226L392.628 224.875L392.043 224.393L392.501 224.25L392.515 224.011C392.06 223.869 391.918 223.751 391.628 223.375L392.467 223.219L392.711 222.755Z" fill="url(#paint5_linear_14_81)"/>
<path d="M412.087 317.355C423.92 316.823 436.632 319.821 447.296 324.837C451.012 326.586 454.52 328.766 457.99 330.949C457.316 332.555 456.132 334.05 455.3 335.598C454.443 337.19 453.636 340.091 452.375 341.225L451.884 340.945C440.352 334.05 425.301 334.465 412.412 335.852L405.402 318.061L412.087 317.355Z" fill="#CDCCCC"/>
<path d="M378.689 266.35C376.595 262.257 375.126 257.928 373.443 253.66L367.796 240.257C365.758 235.422 363.985 229.26 359.983 225.684C354.537 220.818 347.199 217.654 340.817 214.168C342.073 211.838 342.805 209.687 343.419 207.112C350.499 211.113 358.693 213.403 366.795 213.787C370.422 213.959 374.359 213.832 377.931 214.422C378.85 214.574 379.449 214.747 379.985 215.5C379.447 217.126 378.45 218.52 377.625 220.01C376.38 222.257 375.663 224.678 375.233 227.202C374.473 231.664 375.373 237.21 378.155 240.878C381.095 244.754 384.725 246.402 389.449 247.037C388.306 248.06 386.855 249.165 385.979 250.417C384.274 250.799 383.073 251.4 381.875 252.675L381.677 252.872C380.901 253.696 380.98 255.132 380.916 256.201C380.801 258.128 380.75 260.039 380.372 261.938C380.058 263.514 379.481 264.952 378.689 266.35Z" fill="url(#paint6_linear_14_81)"/>
<path d="M335.601 401.312C337.614 399.329 339.444 397.418 340.901 394.969C343.561 390.499 344.768 385.326 345.86 380.294L349.311 365.141C352.979 351.714 359.437 339.267 369.254 329.304C373.325 325.171 378.681 320.507 384.17 318.474L394.027 342.236C381.533 347.702 371.641 359.822 366.713 372.342C365.083 376.485 363.769 380.86 362.431 385.114C360.737 390.496 359.193 395.99 354.936 399.949C354.403 400.445 353.703 401.208 353.023 401.486L352.784 401.52C351.598 402.197 350.559 402.984 349.484 403.821C347.456 403.74 345.64 404.55 343.583 404.32C340.742 404.001 337.507 403.669 335.601 401.312Z" fill="#CDCCCC"/>
<path d="M245.751 361.953L245.341 361.887C242.41 361.36 239.339 361.798 236.488 362.573L236.188 362.657C234.455 358.065 232.024 354.19 229.41 350.069C226.03 344.741 222.583 339.738 218.422 334.99C214.164 330.132 209.222 325.523 203.851 321.918C191.26 313.465 176.488 309.672 161.507 308.655C162.951 307.551 164.403 305.661 165.93 304.805C166.384 304.551 168.446 304.683 169.132 304.646L198.07 304.177L234.785 304.159L255.479 304.162L268.29 304.309C261.727 313.997 255.59 324.08 250.708 334.738C248.99 338.489 247.246 342.294 246.324 346.325C247.8 348.454 249.636 349.332 251.919 350.361C250.445 352.287 248.899 354.165 247.804 356.341C246.914 358.111 246.383 360.079 245.751 361.953Z" fill="#CDCCCC"/>
<path d="M131.297 368.018L179.991 368.284C173.945 373.703 167.452 378.013 160.75 382.541C158.824 383.842 156.733 385.659 154.532 386.417C152.789 387.019 150.399 386.631 148.585 386.565C146.161 386.476 136.413 385.992 134.791 387.081C134.519 387.264 134.309 387.528 134.069 387.751C133.548 389.389 133.664 391.271 133.635 392.979C133.576 396.503 133.423 400.377 134.181 403.831C138.64 404.719 143.852 404.243 148.418 404.172C149.357 404.157 150.581 403.865 151.472 403.975C152.167 404.061 152.921 404.911 153.46 405.337C154.881 406.463 156.645 407.327 158.5 407.26C160.905 407.173 162.569 406.421 164.473 405.037C164.733 404.847 165.351 404.263 165.635 404.179C166.077 404.049 167.053 404.168 167.559 404.166L173.689 404.231L186.73 404.31L195.399 404.501C192.748 414.777 186.627 423.257 177.845 429.168C169.988 434.457 159.661 436.133 150.477 434.267C140.673 432.276 132.656 426.459 127.213 418.126C120.921 408.496 119.639 395.855 122.077 384.806C123.416 378.737 125.817 371.539 131.297 368.018Z" fill="#CDCCCC"/>
<path d="M272.255 215.303L288.973 217.003L297.339 217.932C299.553 218.095 301.824 218.016 304.045 218.001C306.133 217.987 308.814 218.19 310.588 216.885L310.789 216.706C315.759 215.381 321.265 215.781 326.375 215.824C327.158 216.863 327.384 217.471 328.751 217.725C331.375 218.213 334.815 217.376 337.232 216.285C337.563 216.136 338.722 215.433 339.004 215.429C339.363 215.424 340.857 216.325 341.251 216.51C346.227 218.852 351.3 221.517 355.718 224.806C357.188 225.901 358.881 227.037 360.04 228.478L360.913 229.777C360.813 230.453 360.631 230.71 360.071 231.125C357.941 232.706 354.873 233.413 352.453 234.475L357.629 248.21C356.378 249.231 354.009 249.779 352.482 250.476C350.352 251.447 348.279 252.559 346.245 253.715C339.491 257.553 333.648 262.729 327.907 267.9C327.265 267.967 326.675 268.019 326.107 268.354C324.685 269.19 323.141 271.166 321.947 272.359C318.351 275.952 314.769 279.257 311.533 283.223C311.362 283.433 311.419 283.346 311.321 283.522C309.775 280.529 308.214 278.297 305.576 276.159C299.43 271.174 291.463 267.769 284.407 264.235C273.121 258.582 261.871 252.753 249.949 248.531C250.381 246.885 250.657 245.13 250.815 243.433C251.001 241.431 250.532 235.839 251.859 234.491C251.949 234.401 252.294 234.101 252.375 234.079C253.133 233.871 254.653 234.109 255.501 234.087L267.546 233.789L268.095 231.335L269.204 226.855L272.255 215.303Z" fill="#FFD179"/>
<path d="M416.684 350.517C420.178 350.467 423.78 350.554 427.236 351.109C437.835 352.808 448.164 359.75 454.415 368.401C461.032 377.558 464.631 390.56 462.798 401.822C461.014 412.78 454.177 422.539 445.298 428.996C436.904 435.1 426.087 437.762 415.828 436.086C404.238 434.194 395.276 427.636 388.533 418.201C382.4 409.027 379.544 397.194 381.365 386.235C382.756 377.869 385.672 370.216 391.42 363.818C394.155 360.773 397.214 358.363 400.528 355.994L410.864 381.553L413.724 389.465C414.281 391.113 414.66 392.798 415.506 394.332C416.457 396.058 417.819 397.706 419.554 398.68C421.64 399.85 423.448 399.864 425.687 399.141C427.479 398.562 428.974 397.006 429.806 395.344C430.605 393.748 430.856 391.782 430.51 390.039C429.777 386.357 427.49 382.978 426.243 379.416L416.684 350.517Z" fill="#CDCCCC"/>
<path d="M147.51 312.607C156.578 311.849 166.909 313.049 175.677 315.542C180.943 317.04 186.074 318.864 190.966 321.35C208.116 330.065 219.652 344.837 228.794 361.284L156.626 361.827L93.7197 361.991L80.735 362.005C79.1357 362.007 76.7404 362.308 75.2344 361.889C80.0324 353.711 85.173 346.359 91.4537 339.232C94.3084 335.993 97.7944 332.978 101.166 330.287C110.24 323.047 121.003 316.928 132.382 314.277C137.264 313.139 142.512 312.915 147.51 312.607Z" fill="#CDCCCC"/>
<path d="M248.219 384.592L248.579 384.579C251.622 384.447 254.728 383.424 257.693 382.739L275.985 378.411C280.803 377.295 285.987 376.593 290.677 375.083C292.22 374.586 294.061 373.833 295.175 372.626C295.664 372.094 295.947 371.49 295.898 370.758C295.775 368.917 294.368 367.468 293.231 366.15C299.744 365.644 306.813 364.401 311.279 359.158C312.699 357.493 313.803 355.508 314.534 353.447C315.608 350.421 316.077 347.186 316.817 344.069L320.788 328.135L324.026 316.25C324.774 313.712 325.647 311.176 326.163 308.578C326.717 305.792 327.154 302.9 326.926 300.054C326.732 297.636 325.826 295.356 325.249 293.017C323.374 285.419 325.759 279.882 330.655 274.056C337.282 266.168 345.436 260.458 354.853 256.365C356.265 255.751 358.107 254.646 359.583 254.441L375.427 295.896L379.375 306.162C379.927 307.591 380.907 309.424 381.115 310.913C361.917 321.602 349.813 339.241 343.816 360.144C342.496 364.744 341.565 369.478 340.576 374.158C338.815 382.496 337.2 391.598 328.945 396.026C327.35 396.882 325.24 397.621 323.439 397.884C320.069 398.378 316.454 398.311 313.052 398.327L297.983 398.337L254.105 398.321C253.977 396 253.008 393.896 252.074 391.797C250.968 389.31 249.811 386.81 248.219 384.592Z" fill="#CDCCCC"/>
<defs>
<linearGradient id="paint0_linear_14_81" x1="268.505" y1="151.349" x2="239.602" y2="160.286" gradientUnits="userSpaceOnUse">
<stop stop-color="white" stop-opacity="0"/>
<stop offset="1" stop-color="white" stop-opacity="0.0784314"/>
</linearGradient>
<linearGradient id="paint1_linear_14_81" x1="263.124" y1="194.251" x2="263.142" y2="200.752" gradientUnits="userSpaceOnUse">
<stop stop-color="white" stop-opacity="0.305882"/>
<stop offset="1" stop-color="#FFFFFE" stop-opacity="0.54902"/>
</linearGradient>
<linearGradient id="paint2_linear_14_81" x1="271.166" y1="217.799" x2="260.577" y2="216.11" gradientUnits="userSpaceOnUse">
<stop stop-color="#FFFFFE" stop-opacity="0.490196"/>
<stop offset="1" stop-color="#FFFFFE" stop-opacity="0.654902"/>
</linearGradient>
<linearGradient id="paint3_linear_14_81" x1="267.503" y1="187.613" x2="208.965" y2="180.812" gradientUnits="userSpaceOnUse">
<stop stop-color="white" stop-opacity="0.968627"/>
<stop offset="1" stop-color="white"/>
</linearGradient>
<linearGradient id="paint4_linear_14_81" x1="390.235" y1="221.783" x2="387.746" y2="242.003" gradientUnits="userSpaceOnUse">
<stop stop-color="white" stop-opacity="0.113725"/>
<stop offset="1" stop-color="white" stop-opacity="0.415686"/>
</linearGradient>
<linearGradient id="paint5_linear_14_81" x1="395.806" y1="227.424" x2="393.642" y2="229.208" gradientUnits="userSpaceOnUse">
<stop stop-color="white" stop-opacity="0.105882"/>
<stop offset="1" stop-color="white" stop-opacity="0.2"/>
</linearGradient>
<linearGradient id="paint6_linear_14_81" x1="363.054" y1="264.398" x2="365.22" y2="208.828" gradientUnits="userSpaceOnUse">
<stop stop-color="#F6AE54"/>
<stop offset="1" stop-color="#FFD992"/>
</linearGradient>
</defs>
</svg>
